<svg xmlns="http://www.w3.org/2000/svg" viewBox="0 0 26 38"><path fill="#fff" d="M13 14.4c-3.4 0-6.1 4.9-6.1 9.7 0 4.8 2.7 7.5 6.1 7.5 3.4 0 6.1-2.8 6.1-7.5s-2.7-9.7-6.1-9.7zm12.9 9c-.4-3.4-1.9-6.6-3.2-9.4-.4-.8-.7-1.6-1.1-2.3-.7-1.7-1.3-3.4-1.8-4.9-.9-2.8-1.5-4.8-2.6-5.7C16.3.4 15.4 0 14.5 0c-.5 0-1 .1-1.5.3-.5-.2-1-.3-1.4-.3-.9 0-1.8.4-2.7 1.1C7.8 2 7.1 4 6.1 6.8 5.6 8.3 5 9.9 4.3 11.6c-.3.7-.6 1.5-1 2.3C2 16.8.5 20 .1 23.4c-.5 4.1.4 7.6 2.7 10.2C5.7 36.8 9.9 38 12.9 38h.1c2.9 0 7.1-1.1 9.9-4.3 2.4-2.6 3.4-6.2 3-10.3zM21.1 32c-2.3 2.5-5.7 3.4-8 3.5h-.2c-2.4 0-5.9-1-8.2-3.5-1.8-2.1-2.5-4.8-2.1-8.2.4-3 1.8-6.1 3-8.8.4-.8.7-1.6 1-2.3.7-1.8 1.3-3.5 1.8-5 .7-2 1.4-4.1 2-4.6.4-.3.7-.5 1-.5.2 0 .5.1.7.3l.9.4.7-.5c.6-.4 1.1-.3 1.8.2.6.5 1.3 2.5 1.9 4.5.5 1.5 1.1 3.3 1.9 5.1.3.8.7 1.6 1.1 2.4 1.2 2.6 2.6 5.6 2.9 8.7.4 3.4-.3 6.2-2.2 8.3z"/></svg>