<svg xmlns="http://www.w3.org/2000/svg" viewBox="0 0 47 33"><path fill="#fff" d="M43.2 20.5c.3-1 .4-2.1.4-3.2C43.6 10.5 38 4.9 31 4.9c-1.8 0-3.5.4-5 1-1.5-3.5-5.1-6-9.2-6-5.6.1-10.1 4.5-10.1 10 0 .4.1.7.1 1.1-4 1.8-6.8 5.8-6.8 10.5C0 27.8 5.3 33 11.8 33h28.5c3.7 0 6.7-3 6.7-6.6 0-2.6-1.6-4.8-3.8-5.9zm-2.9 10.8H11.8c-5.6 0-10.1-4.4-10.1-9.9 0-3.8 2.3-7.4 5.9-9l1-.4-.1-1.2v-.4c0-.2-.1-.3-.1-.5 0-4.5 3.8-8.2 8.4-8.2 3.3 0 6.4 2 7.7 5l.7 1.5 1.5-.7c1.4-.6 2.8-.9 4.4-.9 6 0 10.9 4.8 10.9 10.7 0 .9-.1 1.8-.4 2.7l-.4 1.3 1.2.6c1.8.8 2.8 2.5 2.8 4.4.1 2.8-2.1 5-4.9 5z"/></svg>