<svg xmlns="http://www.w3.org/2000/svg" viewBox="0 0 32 38"><path fill="#e3e9ea" d="M29 10.2C27.3 8.1 24.9 7 22.1 7h-.4c4.1-1.8 4.5-5.1 4.5-5.1-5.4-.6-7.8 2.1-8.9 4.1-.2-1.9-.7-4.2-2-6l-2.1 1.5c.9 1.3 1.3 2.8 1.5 4.2-1.2-2-3.7-4.3-8.7-3.8 0 0 .4 3.4 4.5 5.1h-.6C7.1 7 4.7 8.1 3 10.2c-4.4 5.4-3.9 12.5 1.5 19.6 1.7 2.3 3.3 4.1 3.6 4.3.4.5 3.2 3.9 7.4 3.9h1c4.2 0 7.1-3.4 7.4-3.9.2-.3 1.9-2.1 3.6-4.3 5.4-7.1 6-14.2 1.5-19.6zm-7.5.8c.8 0 1.2 1 1 1.7-.3.9-1 1.8-1 1.8s-.7-1-1-1.8c-.2-.7.2-1.7 1-1.7zM4.6 14.7c.8 0 1.2 1 1 1.7-.3.9-1 1.8-1 1.8s-.7-1-1-1.8c-.2-.8.2-1.7 1-1.7zm1.6 9.4c-.3.9-1 1.8-1 1.8s-.7-1-1-1.8c-.2-.7.2-1.7 1-1.7s1.3.9 1 1.7zm3.5 5.1c-.3.9-1 1.8-1 1.8s-.7-1-1-1.8c-.2-.7.2-1.7 1-1.7s1.3.9 1 1.7zm0-10.2c-.3.9-1 1.8-1 1.8s-.7-1-1-1.8c-.2-.7.2-1.7 1-1.7.9-.1 1.3.9 1 1.7zm-.4-5.9c-.2-.7.2-1.7 1-1.7s1.2 1 1 1.7c-.3.9-1 1.8-1 1.8s-.7-.9-1-1.8zm1.3 11.4c-.2-.7.2-1.7 1-1.7s1.2 1 1 1.7c-.3.9-1 1.8-1 1.8s-.8-.9-1-1.8zm3.3 8.8c-.3.9-1 1.8-1 1.8s-.7-1-1-1.8c-.2-.7.2-1.7 1-1.7s1.2.9 1 1.7zm1.4-14.1c.8 0 1.2 1 1 1.7-.3.9-1 1.8-1 1.8s-.7-1-1-1.8c-.2-.8.2-1.7 1-1.7zm1 9.3c-.3.9-1 1.8-1 1.8s-.7-1-1-1.8c-.2-.7.2-1.7 1-1.7.9 0 1.3 1 1 1.7zm.7-14.1c-.3.9-1 1.8-1 1.8s-.7-1-1-1.8c-.2-.7.2-1.7 1-1.7s1.2.9 1 1.7zm2 18.5c-.3.9-1 1.8-1 1.8s-.7-1-1-1.8c-.2-.7.2-1.7 1-1.7s1.3.9 1 1.7zm1.4-8.6c-.3.9-1 1.8-1 1.8s-.7-1-1-1.8c-.2-.7.2-1.7 1-1.7.9 0 1.3.9 1 1.7zm2.8 5.5c-.3.9-1 1.8-1 1.8s-.7-1-1-1.8c-.2-.7.2-1.7 1-1.7s1.2.9 1 1.7zm.4-10.6c-.3.9-1 1.8-1 1.8s-.7-1-1-1.8c-.2-.7.2-1.7 1-1.7s1.2.9 1 1.7zm4.5 4.9c-.3.9-1 1.8-1 1.8s-.7-1-1-1.8c-.2-.7.2-1.7 1-1.7s1.2.9 1 1.7zm.3-7.7c-.3.9-1 1.8-1 1.8s-.7-1-1-1.8c-.2-.7.2-1.7 1-1.7s1.3.9 1 1.7z"/></svg>