<svg xmlns="http://www.w3.org/2000/svg" width="16" height="16" viewBox="0 0 16 16"><path fill="#fff" d="M16 3.538a6.46 6.46 0 0 1-1.884.516 3.3 3.3 0 0 0 1.444-1.816 6.607 6.607 0 0 1-2.084.797A3.28 3.28 0 0 0 11.08 2 3.28 3.28 0 0 0 7.88 6.03a9.32 9.32 0 0 1-6.766-3.432 3.284 3.284 0 0 0 1.015 4.38A3.3 3.3 0 0 1 .644 6.57v.04c0 1.592 1.13 2.92 2.634 3.22a3.29 3.29 0 0 1-1.485.057 3.293 3.293 0 0 0 3.066 2.28 6.586 6.586 0 0 1-4.862 1.36 9.286 9.286 0 0 0 5.034 1.475c6.037 0 9.34-5.003 9.34-9.34 0-.145-.002-.285-.008-.426A6.59 6.59 0 0 0 16 3.54z"/></svg>