<svg xmlns="http://www.w3.org/2000/svg" viewBox="0 0 45 44"><path fill="#fff" d="M20.3 26.9c2.2 1.3 5 .5 6.2-1.7l3.8-15.8-11.7 11.2c-1.2 2.2-.5 5 1.7 6.3zm-.2-5.2l7-6.7-2.3 9.4c-.8 1.2-2.4 1.5-3.6.8-1.3-.6-1.7-2.2-1.1-3.5zM22.5 0C10.5 0 .7 9.8.7 22s9.8 22 21.8 22 21.8-9.8 21.8-22c.1-12.2-9.7-22-21.8-22zm0 42.2C11.8 42.2 3 33.7 2.5 23h3.6v-1.8H2.6c.2-4.9 2.1-9.3 5.2-12.7l2.5 2.6 1.3-1.3-2.5-2.7c3.3-3.1 7.7-5 12.6-5.3v3.6h1.8V1.9c4.8.2 9.2 2.1 12.5 5.2l-2.5 2.6 1.3 1.3 2.5-2.6c3.1 3.4 5 7.8 5.2 12.7h-3.6v1.8h3.6c-.5 10.7-9.2 19.3-20 19.3z"/></svg>