<svg xmlns="http://www.w3.org/2000/svg" viewBox="0 0 44 44"><path fill="#fff" d="M11.3 12.8c-2 0-3.6 1.6-3.6 3.7 0 2 1.6 3.7 3.6 3.7s3.6-1.6 3.6-3.7c0-2-1.6-3.7-3.6-3.7zm0 5.5c-1 0-1.8-.8-1.8-1.8s.8-1.8 1.8-1.8 1.8.8 1.8 1.8-.8 1.8-1.8 1.8zm10.9-5.5c-2 0-3.6 1.6-3.6 3.7 0 2 1.6 3.7 3.6 3.7s3.6-1.6 3.6-3.7c0-2-1.6-3.7-3.6-3.7zm0 5.5c-1 0-1.8-.8-1.8-1.8s.8-1.8 1.8-1.8 1.8.8 1.8 1.8-.8 1.8-1.8 1.8zm10.9-5.5c-2 0-3.6 1.6-3.6 3.7 0 2 1.6 3.7 3.6 3.7s3.6-1.6 3.6-3.7c0-2-1.6-3.7-3.6-3.7zm0 5.5c-1 0-1.8-.8-1.8-1.8s.8-1.8 1.8-1.8 1.8.8 1.8 1.8-.8 1.8-1.8 1.8zM38.5 0H5.8C2.8 0 .3 2.5.3 5.5v22c0 3 2.4 5.5 5.5 5.5h10.9l-3.6 11 16.4-11h9.1c3 0 5.5-2.5 5.5-5.5v-22C44 2.5 41.6 0 38.5 0zm3.7 27.5c0 2-1.6 3.7-3.6 3.7h-10l-12.7 9.2 3.6-9.2H5.8c-2 0-3.6-1.6-3.6-3.7v-22c0-2 1.6-3.7 3.6-3.7h32.7c2 0 3.6 1.6 3.6 3.7v22z"/></svg>