<?xml version="1.0" encoding="utf-8"?>
<!-- Generator: Adobe Illustrator 19.0.0, SVG Export Plug-In . SVG Version: 6.00 Build 0)  -->
<svg version="1.1" id="Layer_1" xmlns="http://www.w3.org/2000/svg" xmlns:xlink="http://www.w3.org/1999/xlink" x="0px" y="0px"
	 viewBox="0 0 26 38" style="enable-background:new 0 0 26 38;" xml:space="preserve">
<path fill="#fff" d="M13,14.4c-3.4,0-6.1,4.9-6.1,9.7c0,4.8,2.7,7.5,6.1,7.5c3.4,0,6.1-2.8,6.1-7.5C19.1,19.4,16.4,14.4,13,14.4z
	 M25.9,23.4C25.5,20,24,16.8,22.7,14c-0.4-0.8-0.7-1.6-1.1-2.3c-0.7-1.7-1.3-3.4-1.8-4.9C18.9,4,18.3,2,17.2,1.1
	C16.3,0.4,15.4,0,14.5,0c-0.5,0-1,0.1-1.5,0.3C12.5,0.1,12,0,11.6,0c-0.9,0-1.8,0.4-2.7,1.1C7.8,2,7.1,4,6.1,6.8
	c-0.5,1.5-1.1,3.1-1.8,4.8c-0.3,0.7-0.6,1.5-1,2.3c-1.3,2.9-2.8,6.1-3.2,9.5c-0.5,4.1,0.4,7.6,2.7,10.2C5.7,36.8,9.9,38,12.9,38H13
	c2.9,0,7.1-1.1,9.9-4.3C25.3,31.1,26.3,27.5,25.9,23.4z M21.1,32c-2.3,2.5-5.7,3.4-8,3.5h-0.2c-2.4,0-5.9-1-8.2-3.5
	c-1.8-2.1-2.5-4.8-2.1-8.2c0.4-3,1.8-6.1,3-8.8c0.4-0.8,0.7-1.6,1-2.3c0.7-1.8,1.3-3.5,1.8-5c0.7-2,1.4-4.1,2-4.6
	c0.4-0.3,0.7-0.5,1-0.5c0.2,0,0.5,0.1,0.7,0.3L13,3.3l0.7-0.5c0.6-0.4,1.1-0.3,1.8,0.2c0.6,0.5,1.3,2.5,1.9,4.5
	c0.5,1.5,1.1,3.3,1.9,5.1c0.3,0.8,0.7,1.6,1.1,2.4c1.2,2.6,2.6,5.6,2.9,8.7C23.7,27.1,23,29.9,21.1,32z"/>
</svg>
