<?xml version="1.0" encoding="utf-8"?>
<!-- Generator: Adobe Illustrator 19.0.0, SVG Export Plug-In . SVG Version: 6.00 Build 0)  -->
<svg version="1.1" id="Layer_1" xmlns="http://www.w3.org/2000/svg" xmlns:xlink="http://www.w3.org/1999/xlink" x="0px" y="0px"
	 viewBox="0 0 47 33" style="enable-background:new 0 0 47 33;" xml:space="preserve">
<path fill="#fff" d="M43.2,20.5c0.3-1,0.4-2.1,0.4-3.2c0-6.8-5.6-12.4-12.6-12.4c-1.8,0-3.5,0.4-5,1c-1.5-3.5-5.1-6-9.2-6
	C11.2,0,6.7,4.4,6.7,9.9c0,0.4,0.1,0.7,0.1,1.1C2.8,12.8,0,16.8,0,21.5C0,27.8,5.3,33,11.8,33h28.5c3.7,0,6.7-3,6.7-6.6
	C47,23.8,45.4,21.6,43.2,20.5z M40.3,31.3H11.8c-5.6,0-10.1-4.4-10.1-9.9c0-3.8,2.3-7.4,5.9-9L8.6,12l-0.1-1.2c0-0.1,0-0.2,0-0.4
	c0-0.2-0.1-0.3-0.1-0.5c0-4.5,3.8-8.2,8.4-8.2c3.3,0,6.4,2,7.7,5l0.7,1.5l1.5-0.7c1.4-0.6,2.8-0.9,4.4-0.9c6,0,10.9,4.8,10.9,10.7
	c0,0.9-0.1,1.8-0.4,2.7l-0.4,1.3l1.2,0.6c1.8,0.8,2.8,2.5,2.8,4.4C45.3,29.1,43.1,31.3,40.3,31.3z"/>
</svg>

