<?xml version="1.0" encoding="utf-8"?>
<!-- Generator: Adobe Illustrator 19.0.0, SVG Export Plug-In . SVG Version: 6.00 Build 0)  -->
<svg version="1.1" id="Layer_1" xmlns="http://www.w3.org/2000/svg" xmlns:xlink="http://www.w3.org/1999/xlink" x="0px" y="0px"
	 viewBox="0 0 19 19" style="enable-background:new 0 0 19 19;" xml:space="preserve">
<!-- <style type="text/css">
	.st0{fill-rule:evenodd;clip-rule:evenodd;fill:none;}
</style> -->
<path fill="#fff" d="M19,9.7C19,9.7,19,9.7,19,9.7c0,0,0,0.1,0,0.1c0,0,0,0,0,0c0,0,0,0.1,0,0.1c0,0,0,0,0,0l0,0l0,0
	c0,0.3-0.1,0.6-0.3,0.8l0,0L12,18.6l0,0c-0.2,0.3-0.5,0.4-0.9,0.4l0,0l0,0c0,0-0.1,0-0.1,0c0,0-0.1,0-0.1,0c0,0,0,0,0,0
	c-0.2,0-0.4-0.1-0.6-0.3l0,0L0.4,9.6l0,0C0.2,9.4,0,9.1,0,8.7h0V2.4V1.2v0h0C0,0.5,0.5,0,1.2,0v0h7.5v0c0,0,0,0,0,0
	C9,0,9.3,0.1,9.6,0.4L18.6,9C18.8,9.2,18.9,9.4,19,9.7z M3.2,1.6c-0.9,0-1.6,0.7-1.6,1.6s0.7,1.6,1.6,1.6C4,4.8,4.8,4,4.8,3.2
	S4,1.6,3.2,1.6z"/>
</svg>
