<?xml version="1.0" encoding="utf-8"?>
<!-- Generator: Adobe Illustrator 19.0.0, SVG Export Plug-In . SVG Version: 6.00 Build 0)  -->
<svg version="1.1" id="Layer_1" xmlns="http://www.w3.org/2000/svg" xmlns:xlink="http://www.w3.org/1999/xlink" x="0px" y="0px"
	 viewBox="0 0 32 38" style="enable-background:new 0 0 32 38;" xml:space="preserve">
<!-- <style type="text/css">
	.st0{fill:none;}
</style> -->
<path fill="#e3e9ea" d="M29,10.2c-1.7-2.1-4.1-3.2-6.9-3.2c-0.1,0-0.3,0-0.4,0c4.1-1.8,4.5-5.1,4.5-5.1C20.8,1.3,18.4,4,17.3,6
	c-0.2-1.9-0.7-4.2-2-6l-2.1,1.5c0.9,1.3,1.3,2.8,1.5,4.2C13.5,3.7,11,1.4,6,1.9c0,0,0.4,3.4,4.5,5.1c-0.2,0-0.4,0-0.6,0
	c-2.8,0-5.2,1.1-6.9,3.2c-4.4,5.4-3.9,12.5,1.5,19.6c1.7,2.3,3.3,4.1,3.6,4.3c0.4,0.5,3.2,3.9,7.4,3.9c0.1,0,0.2,0,0.3,0h0.4
	c0.1,0,0.2,0,0.3,0c4.2,0,7.1-3.4,7.4-3.9c0.2-0.3,1.9-2.1,3.6-4.3C32.9,22.7,33.5,15.6,29,10.2z M21.5,11c0.8,0,1.2,1,1,1.7
	c-0.3,0.9-1,1.8-1,1.8s-0.7-1-1-1.8C20.3,12,20.7,11,21.5,11z M4.6,14.7c0.8,0,1.2,1,1,1.7c-0.3,0.9-1,1.8-1,1.8s-0.7-1-1-1.8
	C3.4,15.6,3.8,14.7,4.6,14.7z M6.2,24.1c-0.3,0.9-1,1.8-1,1.8s-0.7-1-1-1.8c-0.2-0.7,0.2-1.7,1-1.7C6,22.4,6.5,23.3,6.2,24.1z
	 M9.7,29.2c-0.3,0.9-1,1.8-1,1.8s-0.7-1-1-1.8c-0.2-0.7,0.2-1.7,1-1.7C9.5,27.5,10,28.4,9.7,29.2z M9.7,19c-0.3,0.9-1,1.8-1,1.8
	s-0.7-1-1-1.8c-0.2-0.7,0.2-1.7,1-1.7C9.6,17.2,10,18.2,9.7,19z M9.3,13.1c-0.2-0.7,0.2-1.7,1-1.7c0.8,0,1.2,1,1,1.7
	c-0.3,0.9-1,1.8-1,1.8S9.6,14,9.3,13.1z M10.6,24.5c-0.2-0.7,0.2-1.7,1-1.7c0.8,0,1.2,1,1,1.7c-0.3,0.9-1,1.8-1,1.8
	S10.8,25.4,10.6,24.5z M13.9,33.3c-0.3,0.9-1,1.8-1,1.8s-0.7-1-1-1.8c-0.2-0.7,0.2-1.7,1-1.7C13.7,31.6,14.1,32.5,13.9,33.3z
	 M15.3,19.2c0.8,0,1.2,1,1,1.7c-0.3,0.9-1,1.8-1,1.8s-0.7-1-1-1.8C14.1,20.1,14.5,19.2,15.3,19.2z M16.3,28.5c-0.3,0.9-1,1.8-1,1.8
	s-0.7-1-1-1.8c-0.2-0.7,0.2-1.7,1-1.7C16.2,26.8,16.6,27.8,16.3,28.5z M17,14.4c-0.3,0.9-1,1.8-1,1.8s-0.7-1-1-1.8
	c-0.2-0.7,0.2-1.7,1-1.7C16.8,12.7,17.2,13.6,17,14.4z M19,32.9c-0.3,0.9-1,1.8-1,1.8s-0.7-1-1-1.8c-0.2-0.7,0.2-1.7,1-1.7
	C18.8,31.2,19.3,32.1,19,32.9z M20.4,24.3c-0.3,0.9-1,1.8-1,1.8s-0.7-1-1-1.8c-0.2-0.7,0.2-1.7,1-1.7C20.3,22.6,20.7,23.5,20.4,24.3
	z M23.2,29.8c-0.3,0.9-1,1.8-1,1.8s-0.7-1-1-1.8c-0.2-0.7,0.2-1.7,1-1.7C23,28.1,23.4,29,23.2,29.8z M23.6,19.2
	c-0.3,0.9-1,1.8-1,1.8s-0.7-1-1-1.8c-0.2-0.7,0.2-1.7,1-1.7C23.4,17.5,23.8,18.4,23.6,19.2z M28.1,24.1c-0.3,0.9-1,1.8-1,1.8
	s-0.7-1-1-1.8c-0.2-0.7,0.2-1.7,1-1.7C27.9,22.4,28.3,23.3,28.1,24.1z M28.4,16.4c-0.3,0.9-1,1.8-1,1.8s-0.7-1-1-1.8
	c-0.2-0.7,0.2-1.7,1-1.7S28.7,15.6,28.4,16.4z"/>
</svg>
