<?xml version="1.0" encoding="utf-8"?>
<!-- Generator: Adobe Illustrator 19.0.0, SVG Export Plug-In . SVG Version: 6.00 Build 0)  -->
<svg version="1.1" id="Layer_1" xmlns="http://www.w3.org/2000/svg" xmlns:xlink="http://www.w3.org/1999/xlink" x="0px" y="0px"
	 viewBox="0 0 44 41" style="enable-background:new 0 0 44 41;" xml:space="preserve">
<path fill="#fff" d="M40,5.5H3.6C1.6,5.5,0,7.1,0,9.2v27.5c0,2,1.6,3.7,3.6,3.7H40c2,0,3.6-1.6,3.6-3.7V9.2C43.6,7.1,42,5.5,40,5.5z
	 M41.8,36.7c0,1-0.8,1.8-1.8,1.8H3.6c-1,0-1.8-0.8-1.8-1.8v-7.3h40V36.7z M41.8,27.5h-40v-9.2h40V27.5z M41.8,16.5h-40V9.2
	c0-1,0.8-1.8,1.8-1.8H40c1,0,1.8,0.8,1.8,1.8V16.5z M18.2,1.8h7.3c1,0,1.8,0.8,1.8,1.8h1.8c0-2-1.6-3.7-3.6-3.7h-7.3
	c-2,0-3.6,1.6-3.6,3.7h1.8C16.4,2.7,17.2,1.8,18.2,1.8z"/>
</svg>
