<?xml version="1.0" encoding="utf-8"?>
<!-- Generator: Adobe Illustrator 19.0.0, SVG Export Plug-In . SVG Version: 6.00 Build 0)  -->
<svg version="1.1" id="Layer_1" xmlns="http://www.w3.org/2000/svg" xmlns:xlink="http://www.w3.org/1999/xlink" x="0px" y="0px"
	 viewBox="0 0 32 32" style="enable-background:new 0 0 32 32;" xml:space="preserve">
<!-- <style type="text/css">
	.st0{fill-rule:evenodd;clip-rule:evenodd;fill:none;}
</style> -->
<path fill="#dfe4e5" d="M32,30.4C32,30.4,32,30.5,32,30.4c0,0.9-0.7,1.6-1.5,1.6h-29C0.7,32,0,31.3,0,30.5c0,0,0,0,0,0h0
	c0,0,0-5.6,4-7.7c2.5-1.3,1.6-0.2,4.7-1.6c3.1-1.3,3.8-1.8,3.8-1.8l0-3.1c0,0-1.2-0.9-1.5-3.8c-0.7,0.2-1-0.9-1-1.6
	c0-0.7-0.4-2.8,0.5-2.6C10.3,7,10.1,5.7,10.2,5c0.2-2.4,2.4-4.8,5.8-5c4,0.2,5.6,2.6,5.8,5c0.1,0.7-0.1,1.9-0.3,3.4
	c0.9-0.2,0.5,1.9,0.5,2.6c0,0.7-0.3,1.8-1,1.6c-0.4,2.9-1.5,3.8-1.5,3.8l0,3c0,0,0.7,0.4,3.8,1.8c3.1,1.3,2.1,0.3,4.7,1.6
	C32,24.8,32,30.4,32,30.4L32,30.4z"/>
</svg>
