<?xml version="1.0" encoding="utf-8"?>
<!-- Generator: Adobe Illustrator 19.0.0, SVG Export Plug-In . SVG Version: 6.00 Build 0)  -->
<svg version="1.1" id="Layer_1" xmlns="http://www.w3.org/2000/svg" xmlns:xlink="http://www.w3.org/1999/xlink" x="0px" y="0px"
	 viewBox="0 0 45 44" style="enable-background:new 0 0 45 44;" xml:space="preserve">
<path fill="#fff" d="M20.3,26.9c2.2,1.3,5,0.5,6.2-1.7l3.8-15.8L18.6,20.6C17.4,22.8,18.1,25.6,20.3,26.9z M20.1,21.7l7-6.7
	l-2.3,9.4c-0.8,1.2-2.4,1.5-3.6,0.8C19.9,24.6,19.5,23,20.1,21.7z M22.5,0C10.5,0,0.7,9.8,0.7,22c0,12.2,9.8,22,21.8,22
	c12,0,21.8-9.8,21.8-22C44.4,9.8,34.6,0,22.5,0z M22.5,42.2c-10.7,0-19.5-8.5-20-19.2h3.6v-1.8H2.6c0.2-4.9,2.1-9.3,5.2-12.7
	l2.5,2.6l1.3-1.3L9.1,7.1c3.3-3.1,7.7-5,12.6-5.3v3.6h1.8V1.9C28.3,2.1,32.7,4,36,7.1l-2.5,2.6l1.3,1.3l2.5-2.6
	c3.1,3.4,5,7.8,5.2,12.7h-3.6v1.8h3.6C42,33.6,33.3,42.2,22.5,42.2z"/>
</svg>
