<?xml version="1.0" encoding="utf-8"?>
<!-- Generator: Adobe Illustrator 19.0.0, SVG Export Plug-In . SVG Version: 6.00 Build 0)  -->
<svg version="1.1" id="Layer_1" xmlns="http://www.w3.org/2000/svg" xmlns:xlink="http://www.w3.org/1999/xlink" x="0px" y="0px"
	 viewBox="0 0 44 44" style="enable-background:new 0 0 44 44;" xml:space="preserve">
<path fill="#fff" d="M11.3,12.8c-2,0-3.6,1.6-3.6,3.7c0,2,1.6,3.7,3.6,3.7s3.6-1.6,3.6-3.7C14.9,14.5,13.3,12.8,11.3,12.8z
	 M11.3,18.3c-1,0-1.8-0.8-1.8-1.8s0.8-1.8,1.8-1.8s1.8,0.8,1.8,1.8S12.3,18.3,11.3,18.3z M22.2,12.8c-2,0-3.6,1.6-3.6,3.7
	c0,2,1.6,3.7,3.6,3.7s3.6-1.6,3.6-3.7C25.8,14.5,24.2,12.8,22.2,12.8z M22.2,18.3c-1,0-1.8-0.8-1.8-1.8s0.8-1.8,1.8-1.8
	c1,0,1.8,0.8,1.8,1.8S23.2,18.3,22.2,18.3z M33.1,12.8c-2,0-3.6,1.6-3.6,3.7c0,2,1.6,3.7,3.6,3.7c2,0,3.6-1.6,3.6-3.7
	C36.7,14.5,35.1,12.8,33.1,12.8z M33.1,18.3c-1,0-1.8-0.8-1.8-1.8s0.8-1.8,1.8-1.8c1,0,1.8,0.8,1.8,1.8S34.1,18.3,33.1,18.3z
	 M38.5,0H5.8c-3,0-5.5,2.5-5.5,5.5v22c0,3,2.4,5.5,5.5,5.5h10.9l-3.6,11l16.4-11h9.1c3,0,5.5-2.5,5.5-5.5v-22C44,2.5,41.6,0,38.5,0z
	 M42.2,27.5c0,2-1.6,3.7-3.6,3.7h-10l-12.7,9.2l3.6-9.2H5.8c-2,0-3.6-1.6-3.6-3.7v-22c0-2,1.6-3.7,3.6-3.7h32.7c2,0,3.6,1.6,3.6,3.7
	V27.5z"/>
</svg>
